<svg width="10" height="10" viewBox="0 0 10 10" fill="none" xmlns="http://www.w3.org/2000/svg">
<path d="M2.44547 6.01797L2.43253 3.80713C2.40955 3.45156 2.0736 3.17609 1.69725 3.18855L1.69694 3.18856C1.29803 3.20134 0.998259 3.49118 1.01166 3.85114L1.01174 3.85411L1.11262 8.18453C1.12627 8.52836 1.45779 8.80669 1.83781 8.79411L1.83781 8.79405L1.84349 8.79397L6.80456 8.72679C7.20222 8.71288 7.50072 8.4235 7.48735 8.06429C7.47453 7.71982 7.14263 7.44074 6.7621 7.45333L6.76211 7.45352L6.75164 7.45349L4.12309 7.44587L3.52478 7.44414L3.93455 7.04794L9.42399 1.74034C9.6939 1.47937 9.68316 1.07603 9.39923 0.836954C9.11175 0.594886 8.65512 0.610757 8.38857 0.868482L2.89914 6.17608L2.44894 6.61136L2.44547 6.01797Z" fill="#8484F1" stroke="#161C23" stroke-width="0.5"/>
</svg>
