<svg width="18" height="18" viewBox="0 0 18 18" fill="none" xmlns="http://www.w3.org/2000/svg">
<g opacity="0.5">
<path fill-rule="evenodd" clip-rule="evenodd" d="M7.5 12C7.5 12.4125 7.1625 12.75 6.75 12.75C6.3375 12.75 6 12.4125 6 12V9.00002C6 8.58752 6.3375 8.25002 6.75 8.25002C7.1625 8.25002 7.5 8.58752 7.5 9.00002V12ZM12 12C12 12.4125 11.6625 12.75 11.25 12.75C10.8375 12.75 10.5 12.4125 10.5 12V9.00002C10.5 8.58752 10.8375 8.25002 11.25 8.25002C11.6625 8.25002 12 8.58752 12 9.00002V12ZM13.5 14.25C13.5 14.6633 13.164 15 12.75 15H5.25003C4.83603 15 4.50003 14.6633 4.50003 14.25V6.00002H13.5V14.25ZM7.49997 3.24603C7.49997 3.12978 7.66047 3.00003 7.87497 3.00003H10.125C10.3395 3.00003 10.5 3.12978 10.5 3.24603V4.50003H7.49997V3.24603ZM15.75 4.50002H15H12V3.24602C12 2.28302 11.1593 1.50002 10.125 1.50002H7.875C6.84075 1.50002 6 2.28302 6 3.24602V4.50002H3H2.25C1.8375 4.50002 1.5 4.83752 1.5 5.25002C1.5 5.66252 1.8375 6.00002 2.25 6.00002H3V14.25C3 15.4905 4.0095 16.5 5.25 16.5H12.75C13.9905 16.5 15 15.4905 15 14.25V6.00002H15.75C16.1625 6.00002 16.5 5.66252 16.5 5.25002C16.5 4.83752 16.1625 4.50002 15.75 4.50002Z" fill="#808080"/>
<mask id="mask0_1_173" style="mask-type:luminance" maskUnits="userSpaceOnUse" x="1" y="1" width="16" height="16">
<path fill-rule="evenodd" clip-rule="evenodd" d="M7.5 12C7.5 12.4125 7.1625 12.75 6.75 12.75C6.3375 12.75 6 12.4125 6 12V9.00002C6 8.58752 6.3375 8.25002 6.75 8.25002C7.1625 8.25002 7.5 8.58752 7.5 9.00002V12ZM12 12C12 12.4125 11.6625 12.75 11.25 12.75C10.8375 12.75 10.5 12.4125 10.5 12V9.00002C10.5 8.58752 10.8375 8.25002 11.25 8.25002C11.6625 8.25002 12 8.58752 12 9.00002V12ZM13.5 14.25C13.5 14.6633 13.164 15 12.75 15H5.25003C4.83603 15 4.50003 14.6633 4.50003 14.25V6.00002H13.5V14.25ZM7.49997 3.24603C7.49997 3.12978 7.66047 3.00003 7.87497 3.00003H10.125C10.3395 3.00003 10.5 3.12978 10.5 3.24603V4.50003H7.49997V3.24603ZM15.75 4.50002H15H12V3.24602C12 2.28302 11.1593 1.50002 10.125 1.50002H7.875C6.84075 1.50002 6 2.28302 6 3.24602V4.50002H3H2.25C1.8375 4.50002 1.5 4.83752 1.5 5.25002C1.5 5.66252 1.8375 6.00002 2.25 6.00002H3V14.25C3 15.4905 4.0095 16.5 5.25 16.5H12.75C13.9905 16.5 15 15.4905 15 14.25V6.00002H15.75C16.1625 6.00002 16.5 5.66252 16.5 5.25002C16.5 4.83752 16.1625 4.50002 15.75 4.50002Z" fill="white"/>
</mask>
<g mask="url(#mask0_1_173)">
</g>
</g>
</svg>
