<svg width="12" height="16" viewBox="0 0 12 16" fill="none" xmlns="http://www.w3.org/2000/svg">
<path d="M6.33334 4.03829L6.34125 4.03908C7.09923 4.1944 7.79472 4.5694 8.34101 5.11733C8.88848 5.6647 9.2636 6.36047 9.42005 7.11867C9.52682 7.64534 9.52655 8.1881 9.41926 8.71467C9.26395 9.47305 8.88865 10.1689 8.34021 10.7152L9.45963 11.8346C10.2259 11.0679 10.751 10.0937 10.9701 9.03213C11.1219 8.29597 11.1219 7.53658 10.9701 6.80042C10.7536 5.7383 10.2284 4.7637 9.46042 3.99871C8.95619 3.49269 8.35851 3.08939 7.70055 2.81121C7.36513 2.66921 7.01639 2.561 6.6595 2.48821C6.55105 2.46604 6.4418 2.45417 6.33334 2.43833V0L3.16667 3.16667L6.33334 6.33333V4.03829ZM0.435421 10.0732C0.573171 10.3993 0.745755 10.716 0.946838 11.0153C1.14396 11.3082 1.37196 11.5837 1.62292 11.8338C2.12815 12.3392 2.72591 12.7426 3.38359 13.0221C3.72005 13.1646 4.07075 13.2731 4.42463 13.3451C4.55684 13.372 4.69221 13.3895 4.8268 13.4069V15.7375L7.99346 12.5709L4.8268 9.40421V11.803C4.79909 11.7982 4.7698 11.8006 4.74209 11.7943C3.98411 11.6389 3.28862 11.2639 2.74234 10.716C2.37427 10.3487 2.08227 9.9124 1.88306 9.43209C1.68385 8.95178 1.58135 8.43688 1.58142 7.9169C1.58149 7.39691 1.68414 6.88205 1.88349 6.40179C2.08283 5.92154 2.37495 5.48532 2.74313 5.11813L1.62371 3.99792C1.11823 4.50289 0.715014 5.10072 0.436213 5.75858C0.147395 6.44136 -0.000957288 7.17532 4.64815e-06 7.91667C-0.000500135 8.65738 0.147559 9.39068 0.435421 10.0732Z" fill="#E0B36A"/>
</svg>
