<svg width="15" height="13" viewBox="0 0 15 13" fill="none" xmlns="http://www.w3.org/2000/svg">
<path d="M12.4186 12.6H2.09302C0.93892 12.6 0 11.6611 0 10.507V2.69303C0 1.53893 0.93892 0.600006 2.09302 0.600006H12.4186C13.5727 0.600006 14.5116 1.53893 14.5116 2.69303V10.507C14.5116 11.6611 13.5727 12.6 12.4186 12.6ZM13.6744 5.34418H10.6047C9.91222 5.34418 9.34884 5.90753 9.34884 6.60001C9.34884 7.29248 9.91219 7.85583 10.6047 7.85583H13.6744V5.34418ZM13.6744 8.69303H10.6047C9.45057 8.69303 8.51165 7.75411 8.51165 6.60001C8.51165 5.4459 9.45057 4.50698 10.6047 4.50698H13.6744V2.69303C13.6744 2.00058 13.1111 1.4372 12.4186 1.4372H2.09302C1.40057 1.4372 0.837197 2.00055 0.837197 2.69303V10.507C0.837197 11.1994 1.40054 11.7628 2.09302 11.7628H12.4186C13.1111 11.7628 13.6744 11.1995 13.6744 10.507V8.69303Z" fill="#C0996F"/>
</svg>
